<svg xmlns="http://www.w3.org/2000/svg" viewBox="0 0 192 192"><path d="M52 69.946c9.558 0 17.334-7.857 17.334-17.513 0-9.658-7.776-17.514-17.334-17.514s-17.334 7.856-17.334 17.514c0 9.656 7.776 17.513 17.334 17.513zm0-27.027c5.146 0 9.334 4.268 9.334 9.514 0 5.245-4.188 9.513-9.334 9.513s-9.334-4.268-9.334-9.513c0-5.246 4.188-9.514 9.334-9.514zm-3.458 79.092L52 127.958l3.458-5.947c.22-.378 21.967-37.783 26.646-45.911C85.852 69.993 88 61.372 88 52.433 88 32.343 71.85 16 52 16S16 32.344 16 52.433c0 8.939 2.149 17.56 5.896 23.668 4.681 8.13 26.426 45.532 26.646 45.91zM77.523 84l-.166-.14c.31-.369.608-.752.906-1.136l-.74 1.276zM52 24c15.44 0 28 12.755 28 28.433 0 7.412-1.771 14.71-4.738 19.522l-.062.104c-3.484 6.053-16.808 28.985-23.2 39.982-6.392-10.997-19.716-33.929-23.2-39.982l-.061-.104C25.77 67.144 24 59.845 24 52.433 24 36.755 36.56 24 52 24zm115.122 83.64c2.357 4.256 4.879 10.243 4.879 16.378v28c0 7.216-.975 24-10 24H144.67l-.327-.055c-2.042-.34-8.39-2.8-9.246-19.945H56.883c-.41 7.125-2.17 18.77-9.225 19.945l-.327.055H30c-9.025 0-10-16.784-10-24v-28c0-6.135 2.522-12.122 4.879-16.378C19.262 106.223 16 101.046 16 96.018c0-3.785 1.43-6.49 3.323-8.372A13421.837 13421.837 0 0 0 26.3 99.675l6.225 10.72C30.49 113.81 28 119 28 124.017v28c0 8.987 1.612 14.536 2.644 16h15.272c.792-.922 3.084-4.581 3.084-16v-4h94.001v4c0 11.419 2.292 15.078 3.084 16h15.272c1.032-1.464 2.644-7.013 2.644-16v-28c0-7.053-5.142-15.025-7.124-17.501l-5.198-6.5H164c2.935 0 4-2.392 4-4 0-2.878-2.19-3.743-3.37-4H145.12l-.913-2.733c-.048-.144-4.876-14.47-11.363-22.81l-.132-.18c-6.365-9.195-28.566-10.54-36.582-10.278l-.127.004-.129-.004h-.009c.081-1.316.135-2.637.135-3.965 0-1.352-.07-2.698-.197-4.04l.198.005c1.107-.027 8.665-.159 17.28 1.18 12.817 1.992 21.545 6.181 25.943 12.45 5.524 7.141 9.764 17.484 11.593 22.372l14.75.04c3.609.515 10.434 3.678 10.434 11.96 0 5.028-3.262 10.205-8.879 11.622zM133 128h-17c-6.065 0-11-4.934-11-11 0-6.008 4.037-10.212 10.536-10.972 4.677-.547 16.996-2 16.996-2L133 104c6.066 0 11 4.935 11 11v2c0 6.066-4.934 11-11 11zm.187-15.994c-1.864.22-12.462 1.47-16.722 1.968C113 114.379 113 115.957 113 117c0 1.655 1.346 3 3 3h17c1.655 0 3-1.345 3-3v-2a3.003 3.003 0 0 0-2.813-2.994z"/></svg>