<svg xmlns="http://www.w3.org/2000/svg" viewBox="0 0 192 192"><path d="M160.278 81.304l-7.493 3.18c-11.63-16.435-32.477-27.417-56.218-27.417-23.92 0-44.907 11.145-56.484 27.786l-7.472-3.172C45.448 62.198 69.3 49.067 96.567 49.067c27.091 0 50.816 12.96 63.71 32.237zM136.186 91.53l7.618-3.234c-10.107-13.335-27.501-22.162-47.237-22.162-19.915 0-37.444 8.99-47.508 22.529l7.59 3.221c8.758-10.713 23.381-17.75 39.918-17.75 16.352 0 30.83 6.884 39.62 17.396zM23.512 77.819A72.736 72.736 0 0 1 33.72 64.748C49.171 49.02 71.58 40 95.195 40c31.074 0 58.471 15.304 73.114 37.895l7.462-3.168C159.873 49.29 129.58 32 95.195 32c-25.749 0-50.236 9.893-67.182 27.14a80.656 80.656 0 0 0-11.949 15.517l7.448 3.162zM148 119.999h-13.55c-1.75-3.484-5.28-10.125-8.809-14.454-7.012-9.41-27.4-9.554-29.662-9.544-2.332-.036-22.698.135-29.71 9.544-3.53 4.328-7.06 10.97-8.81 14.454H44.024a4 4 0 0 0 0 8h5.873c-2.737 2.788-5.942 7.093-5.942 12v20c0 10.168 2.916 16 8 16h12.013c1.689-.006 6.822-.958 7.818-12h48.337c.997 11.042 6.13 11.994 7.832 12h12c5.084 0 8-5.832 8-16v-20c0-4.907-3.206-9.212-5.943-12H148a4 4 0 0 0 0-8zm-8.045 40c0 4.205-.632 6.862-1.113 8h-9.718c-.41-.798-1.17-2.958-1.17-8v-4h-64v4c0 5.042-.76 7.202-1.169 8h-9.719c-.48-1.138-1.111-3.795-1.111-8v-20c0-3.138 4.273-7.255 6.334-8.752l.264-.19 4.726-4.724.298-.636c.047-.1 4.701-9.993 8.941-15.158l.138-.178c3.433-4.698 16.112-6.419 23.323-6.36 6.035-.024 19.7 1.47 23.274 6.36l.138.178c4.24 5.165 8.894 15.058 8.941 15.158l.298.637 4.497 4.494.485.414c2.07 1.502 6.343 5.62 6.343 8.757v20z"/></svg>